<?xml version="1.0" encoding="utf-8"?>
<!-- Generator: Adobe Illustrator 22.0.1, SVG Export Plug-In . SVG Version: 6.00 Build 0)  -->
<svg version="1.1" id="Capa_1" xmlns="http://www.w3.org/2000/svg" xmlns:xlink="http://www.w3.org/1999/xlink" x="0px" y="0px"
	 viewBox="0 0 19.9 26" style="enable-background:new 0 0 19.9 26;" xml:space="preserve">
<style type="text/css">
	.st0{fill:#808080;}
</style>
<path class="st0" d="M17.8,18.6l-4.1-2.1c-0.4-0.2-0.6-0.6-0.6-1V14c0.1-0.1,0.2-0.3,0.3-0.4c0.5-0.8,1-1.6,1.3-2.5
	c0.6-0.3,1-0.9,1-1.6V7.8c0-0.4-0.2-0.8-0.4-1.1V4.4c0-0.2,0.1-1.7-0.9-2.8C13.4,0.5,11.9,0,10,0S6.6,0.5,5.7,1.5
	c-1,1.2-0.9,2.6-0.9,2.8v2.3C4.5,7,4.3,7.4,4.3,7.8v1.7c0,0.5,0.2,1,0.6,1.3c0.4,1.6,1.2,2.8,1.5,3.1v1.4c0,0.4-0.2,0.8-0.6,1
	L2,18.6c-1.3,0.7-2,2-2,3.4v1.4C0,25.5,6.5,26,10,26s10-0.5,10-2.6v-1.3C19.9,20.6,19.1,19.3,17.8,18.6z"/>
</svg>
