<?xml version="1.0" encoding="utf-8"?>
<!-- Generator: Adobe Illustrator 22.0.1, SVG Export Plug-In . SVG Version: 6.00 Build 0)  -->
<svg version="1.1" id="Layer_1" xmlns="http://www.w3.org/2000/svg" xmlns:xlink="http://www.w3.org/1999/xlink" x="0px" y="0px"
	 viewBox="0 0 45 45" style="enable-background:new 0 0 45 45;" xml:space="preserve">
<style type="text/css">
	.st0{fill:#49C6AF;}
</style>
<g id="SvgjsG9230" transform="translate(11.813204881217745, 11.345269097222221) scale(0.8680555555555556)" xmlns:name="symbol_mainfill">
	<g>
		<path class="st0" d="M-5.1,3.7C-2.3-1.3,2.6-5,8.4-6l-1.2-6.7C-0.6-11.3-7.2-6.4-10.9,0.4L-5.1,3.7z M-4.7,23
			c-1.7-2.9-2.7-6.3-2.7-9.9c0-2.4,0.4-4.6,1.2-6.7L-12.6,4c-1,2.8-1.6,5.9-1.6,9.1c0,4.9,1.3,9.5,3.7,13.4L-4.7,23z M12,32.4
			l-0.2,0c-6,0-11.3-2.7-14.8-7l-5.2,4.3c4.7,5.8,12,9.5,20,9.5c0.1,0,0.2,0,0.3,0L12,32.4z M28.5,22.6c-2.8,5-7.8,8.6-13.6,9.6
			l1.1,6.7c7.9-1.3,14.6-6.2,18.4-12.9L28.5,22.6z M28.4,3.3C30,6.2,31,9.5,31,13c0,2.5-0.4,4.8-1.3,6.9l6.3,2.4
			c1.1-2.9,1.7-6.1,1.7-9.4c0-4.8-1.3-9.3-3.5-13.2L28.4,3.3z"/>
	</g>
</g>
</svg>
